<svg width="40" height="40" viewBox="0 0 40 40" fill="none" xmlns="http://www.w3.org/2000/svg">
<g clip-path="url(#clip0_59_17236)">
<path d="M24.166 12.4999C24.3849 12.2811 24.6447 12.1074 24.9307 11.989C25.2167 11.8705 25.5232 11.8096 25.8327 11.8096C26.1422 11.8096 26.4487 11.8705 26.7347 11.989C27.0206 12.1074 27.2805 12.2811 27.4993 12.4999C27.7182 12.7188 27.8918 12.9786 28.0103 13.2646C28.1287 13.5506 28.1897 13.8571 28.1897 14.1666C28.1897 14.4761 28.1287 14.7826 28.0103 15.0686C27.8918 15.3546 27.7182 15.6144 27.4993 15.8333L16.2493 27.0833L11.666 28.3333L12.916 23.7499L24.166 12.4999Z" stroke="#667085" stroke-width="1.66667" stroke-linecap="round" stroke-linejoin="round"/>
</g>
<defs>
<clipPath id="clip0_59_17236">
<rect width="20" height="20" fill="white" transform="translate(10 10)"/>
</clipPath>
</defs>
</svg>
